<svg xmlns="http://www.w3.org/2000/svg" version="1.1" xmlns:xlink="http://www.w3.org/1999/xlink" width="512" height="512" x="0" y="0" viewBox="0 0 290.387 223.928" style="enable-background:new 0 0 512 512" xml:space="preserve" class=""><g><path d="M39.93 78.945c.773 0 1.559.005 2.348.01 3.728-3.483 6.071-8.43 6.071-13.935 0-10.542-8.545-19.088-19.088-19.088-10.542 0-19.09 8.546-19.09 19.088 0 6.14 2.91 11.587 7.413 15.079 5.424-.78 11.472-1.01 17.543-1.114 1.616-.028 3.223-.04 4.803-.04zM16.352 101.897a10.551 10.551 0 0 1-8.341 4.068c-.765 0-1.532-.083-2.281-.248a10.573 10.573 0 0 1-2.226-.764c-2.361 9.187-3.922 23.539-2.464 45.864a6.86 6.86 0 0 0 7.293 6.398 6.832 6.832 0 0 0 2.507-.658l3.776 58.256a8.952 8.952 0 0 0 9.512 8.355 8.9 8.9 0 0 0 5.132-2.05 8.907 8.907 0 0 0 5.132 2.05 8.953 8.953 0 0 0 9.514-8.355l3.775-58.256a6.832 6.832 0 0 0 2.961.673 6.86 6.86 0 0 0 6.839-6.413c1.725-26.4-.77-41.662-3.822-50.4-4.454-.192-8.93-.3-13.218-.3-13.322 0-21.082.913-24.089 1.78zM177.663 126.576l92.712-106.977 20.012 1.397-13.056-18.572-42.1 14.722 17.87 1.247-103.422 100.522zM72.674 39.097l26.772-5.42a22.407 22.407 0 0 0 2.53-15.637C99.51 5.86 87.635-2.014 75.457.452 63.278 2.918 55.404 14.789 57.87 26.969a22.428 22.428 0 0 0 9.709 14.345 18.224 18.224 0 0 1 2.627-1.376c.8-.39 1.63-.672 2.468-.841z" fill="#4dcdf8" opacity="1" data-original="#000000" class=""></path><path d="M134.072 110.346c0-.743-.078-1.466-.203-2.173a7.746 7.746 0 0 0-.134-1.12l-10.305-50.9c3.076 4.013 6.739 10.588 10.259 21.338a8 8 0 0 0 11.825 4.305l36.142-22.465a8 8 0 1 0-8.446-13.588l-27.817 17.29c-5.726-13.72-12.784-22.757-21.048-26.923-5.653-2.85-10.372-2.637-12.834-2.2-.152.021-.303.038-.455.068l-37.867 7.666a7.714 7.714 0 0 0-1.909.663c-5.35 2.213-15.452 10.27-17.672 39.512-4.96-.19-11.636-.351-18.436-.234-20.04.343-32.882 2.48-34.985 12.064a8 8 0 0 0 14.54 6.051c5.466-2.133 25.779-2.836 45.961-1.514a8 8 0 0 0 8.522-7.804c.183-8.178.979-14.526 2.035-19.392l8.735 43.146v97.429c0 6.83 5.537 12.363 12.365 12.363 6.826 0 12.364-5.533 12.364-12.363v-90.75l4.634-.939v91.689c0 6.83 5.537 12.363 12.366 12.363 6.826 0 12.363-5.533 12.363-12.363v-101.22z" fill="#4dcdf8" opacity="1" data-original="#000000" class=""></path></g></svg>