<svg xmlns="http://www.w3.org/2000/svg" version="1.1" xmlns:xlink="http://www.w3.org/1999/xlink" width="512" height="512" x="0" y="0" viewBox="0 0 24 24" style="enable-background:new 0 0 512 512" xml:space="preserve" class=""><g><path d="M13.5 10.5v5c0 .83-.67 1.5-1.5 1.5s-1.5-.67-1.5-1.5v-5c0-.83.67-1.5 1.5-1.5s1.5.67 1.5 1.5ZM12 19c-.83 0-1.5.67-1.5 1.5S11.17 22 12 22s1.5-.67 1.5-1.5S12.83 19 12 19Zm11.05-4.19L15.31 2.73C14.56 1.65 13.32 1 12 1s-2.56.65-3.34 1.78L.99 14.76C-.1 16.32-.3 18.21.47 19.68 1.24 21.16 2.81 22 4.79 22h1.72c.83 0 1.5-.67 1.5-1.5S7.34 19 6.51 19H4.79c-.48 0-1.33-.09-1.66-.71-.25-.48-.13-1.17.35-1.87l7.67-11.98c.28-.4.69-.44.85-.44s.57.04.82.39l7.74 12.08c.45.64.57 1.34.32 1.82-.32.62-1.18.71-1.66.71H17.5c-.83 0-1.5.67-1.5 1.5s.67 1.5 1.5 1.5h1.72c1.97 0 3.55-.85 4.32-2.32.77-1.47.57-3.36-.48-4.87Z" fill="#fddc27" opacity="1" data-original="#000000" class=""></path></g></svg>